{"asset":{"version":"2.0","generator":"babylon.js glTF exporter for 3ds max 2017 v1.3.23"},"scene":0,"scenes":[{"nodes":[0,25],"extensions":{}}],"nodes":[{"children":[1,2,3,4,5,6,7,8,9,10,11,12,13,14,15,16,17,18,19,20,21,22,23,24],"translation":[1.61314964,19.5386486,0.0394001],"rotation":[0.0,0.0,0.0,1.0],"scale":[1.0,1.0,1.0],"name":"hermes_birkin_bag"},{"mesh":0,"translation":[0.0,-18.85925,-4.76837158E-07],"rotation":[0.0,0.0,0.0,1.0],"scale":[1.0,1.0,1.0],"name":"hermes_birkin_bag_bottom"},{"mesh":1,"translation":[-0.0827994347,-19.0127983,0.0],"rotation":[0.0,0.0,0.0,1.0],"scale":[1.0,1.0,1.0],"name":"hermes_birkin_belt_bottom"},{"mesh":2,"translation":[-0.17054987,-19.2855988,-2.38418579E-07],"rotation":[0.0,0.0,0.0,1.0],"scale":[1.0,1.0,1.0],"name":"hermes_birkin_feet"},{"mesh":3,"translation":[4.76837158E-07,-18.8288479,0.0],"rotation":[0.0,0.0,0.0,1.0],"scale":[1.0,1.0,1.0],"name":"hermes_birkin_cord_bottom"},{"mesh":4,"translation":[5.10215759E-05,-7.017297,4.9926],"rotation":[0.0,0.0,0.0,1.0],"scale":[1.0,1.0,1.0],"name":"hermes_birkin_bag_front"},{"mesh":5,"translation":[5.054474E-05,2.65340424,2.1539],"rotation":[0.0,0.0,0.0,1.0],"scale":[1.0,1.0,1.0],"name":"hermes_birkin_bag_top"},{"mesh":6,"translation":[4.76837158E-07,0.659248352,2.82149982],"rotation":[0.0,0.0,0.0,1.0],"scale":[1.0,1.0,1.0],"name":"hermes_birkin_hook"},{"mesh":7,"translation":[-5.80774975,0.7018013,0.5876],"rotation":[0.0,0.0,0.0,1.0],"scale":[1.0,1.0,1.0],"name":"hermes_birkin_belt_001"},{"mesh":8,"translation":[6.03995037,0.726799,0.6874],"rotation":[0.0,0.0,0.0,1.0],"scale":[1.0,1.0,1.0],"name":"hermes_birkin_belt_002"},{"mesh":9,"translation":[0.843800545,1.092804,3.56365],"rotation":[0.0,0.0,0.0,1.0],"scale":[1.0,1.0,1.0],"name":"hermes_birkin_buckle_002"},{"mesh":10,"translation":[5.10215759E-05,-5.8628006,-4.9003],"rotation":[0.0,0.0,0.0,1.0],"scale":[1.0,1.0,1.0],"name":"hermes_birkin_bag_back"},{"mesh":11,"translation":[0.218650341,1.12270355,3.01319981],"rotation":[0.0,0.0,0.0,1.0],"scale":[1.0,1.0,1.0],"name":"hermes_birkin_plate"},{"mesh":12,"translation":[2.38418579E-07,9.292301,1.67484987],"rotation":[0.0,0.0,0.0,1.0],"scale":[1.0,1.0,1.0],"name":"hermes_birkin_handle_001"},{"mesh":13,"translation":[4.76837158E-07,6.22344971,-0.0916001052],"rotation":[0.0,0.0,0.0,1.0],"scale":[1.0,1.0,1.0],"name":"hermes_birkin_bag_joint"},{"mesh":14,"translation":[0.0,-7.715947,-4.76837158E-07],"rotation":[0.0,0.0,0.0,1.0],"scale":[1.0,1.0,1.0],"name":"hermes_birkin_bag_side"},{"mesh":15,"translation":[4.76837158E-07,-7.619749,-5.00679E-05],"rotation":[0.0,0.0,0.0,1.0],"scale":[1.0,1.0,1.0],"name":"hermes_birkin_cord_side"},{"mesh":16,"translation":[0.232000351,1.365902,4.05545],"rotation":[0.0,0.0,0.0,1.0],"scale":[1.0,1.0,1.0],"name":"hermes_birkin_clamp"},{"mesh":17,"translation":[-4.04935,-3.84465027,5.67424965],"rotation":[0.0,0.0,0.0,1.0],"scale":[1.0,1.0,1.0],"name":"hermes_birkin_key_cover"},{"mesh":18,"translation":[-4.12044954,-5.69249725,6.66315],"rotation":[0.0,0.0,0.0,1.0],"scale":[1.0,1.0,1.0],"name":"hermes_birkin_key_001"},{"mesh":19,"translation":[2.38418579E-07,9.314949,-2.01745],"rotation":[0.0,0.0,0.0,1.0],"scale":[1.0,1.0,1.0],"name":"hermes_birkin_handle_002"},{"mesh":20,"translation":[-0.360799551,1.04655457,3.36204982],"rotation":[0.0,0.0,0.0,1.0],"scale":[1.0,1.0,1.0],"name":"hermes_birkin_buckle_001"},{"mesh":21,"translation":[-5.6925993,-4.83229828,5.6183],"rotation":[0.0,0.0,0.0,1.0],"scale":[1.0,1.0,1.0],"name":"hermes_birkin_lock"},{"mesh":22,"translation":[-3.86199975,-5.601001,6.49075],"rotation":[0.0,0.0,0.0,1.0],"scale":[1.0,1.0,1.0],"name":"hermes_birkin_key_002"},{"mesh":23,"translation":[-4.68519974,-0.991447449,4.04325],"rotation":[0.0,0.0,0.0,1.0],"scale":[1.0,1.0,1.0],"name":"hermes_birkin_string"},{"translation":[0.0,0.0,0.0],"rotation":[0.0,0.0,0.0,1.0],"scale":[1.0,1.0,1.0],"name":"Default light"}],"meshes":[{"primitives":[{"attributes":{"POSITION":1,"NORMAL":2,"TEXCOORD_0":3},"indices":0,"mode":4,"material":0}],"name":"hermes_birkin_bag_bottom"},{"primitives":[{"attributes":{"POSITION":5,"NORMAL":6,"TEXCOORD_0":7},"indices":4,"mode":4,"material":0}],"name":"hermes_birkin_belt_bottom"},{"primitives":[{"attributes":{"POSITION":9,"NORMAL":10,"TEXCOORD_0":11},"indices":8,"mode":4,"material":0}],"name":"hermes_birkin_feet"},{"primitives":[{"attributes":{"POSITION":13,"NORMAL":14,"TEXCOORD_0":15},"indices":12,"mode":4,"material":0}],"name":"hermes_birkin_cord_bottom"},{"primitives":[{"attributes":{"POSITION":17,"NORMAL":18,"TEXCOORD_0":19},"indices":16,"mode":4,"material":0}],"name":"hermes_birkin_bag_front"},{"primitives":[{"attributes":{"POSITION":21,"NORMAL":22,"TEXCOORD_0":23},"indices":20,"mode":4,"material":0}],"name":"hermes_birkin_bag_top"},{"primitives":[{"attributes":{"POSITION":25,"NORMAL":26,"TEXCOORD_0":27},"indices":24,"mode":4,"material":0}],"name":"hermes_birkin_hook"},{"primitives":[{"attributes":{"POSITION":29,"NORMAL":30,"TEXCOORD_0":31},"indices":28,"mode":4,"material":0}],"name":"hermes_birkin_belt_001"},{"primitives":[{"attributes":{"POSITION":33,"NORMAL":34,"TEXCOORD_0":35},"indices":32,"mode":4,"material":0}],"name":"hermes_birkin_belt_002"},{"primitives":[{"attributes":{"POSITION":37,"NORMAL":38,"TEXCOORD_0":39},"indices":36,"mode":4,"material":0}],"name":"hermes_birkin_buckle_002"},{"primitives":[{"attributes":{"POSITION":41,"NORMAL":42,"TEXCOORD_0":43},"indices":40,"mode":4,"material":0}],"name":"hermes_birkin_bag_back"},{"primitives":[{"attributes":{"POSITION":45,"NORMAL":46,"TEXCOORD_0":47},"indices":44,"mode":4,"material":0}],"name":"hermes_birkin_plate"},{"primitives":[{"attributes":{"POSITION":49,"NORMAL":50,"TEXCOORD_0":51},"indices":48,"mode":4,"material":0}],"name":"hermes_birkin_handle_001"},{"primitives":[{"attributes":{"POSITION":53,"NORMAL":54,"TEXCOORD_0":55},"indices":52,"mode":4,"material":0}],"name":"hermes_birkin_bag_joint"},{"primitives":[{"attributes":{"POSITION":57,"NORMAL":58,"TEXCOORD_0":59},"indices":56,"mode":4,"material":0}],"name":"hermes_birkin_bag_side"},{"primitives":[{"attributes":{"POSITION":61,"NORMAL":62,"TEXCOORD_0":63},"indices":60,"mode":4,"material":0}],"name":"hermes_birkin_cord_side"},{"primitives":[{"attributes":{"POSITION":65,"NORMAL":66,"TEXCOORD_0":67},"indices":64,"mode":4,"material":0}],"name":"hermes_birkin_clamp"},{"primitives":[{"attributes":{"POSITION":69,"NORMAL":70,"TEXCOORD_0":71},"indices":68,"mode":4,"material":0}],"name":"hermes_birkin_key_cover"},{"primitives":[{"attributes":{"POSITION":73,"NORMAL":74,"TEXCOORD_0":75},"indices":72,"mode":4,"material":0}],"name":"hermes_birkin_key_001"},{"primitives":[{"attributes":{"POSITION":77,"NORMAL":78,"TEXCOORD_0":79},"indices":76,"mode":4,"material":0}],"name":"hermes_birkin_handle_002"},{"primitives":[{"attributes":{"POSITION":81,"NORMAL":82,"TEXCOORD_0":83},"indices":80,"mode":4,"material":0}],"name":"hermes_birkin_buckle_001"},{"primitives":[{"attributes":{"POSITION":85,"NORMAL":86,"TEXCOORD_0":87},"indices":84,"mode":4,"material":0}],"name":"hermes_birkin_lock"},{"primitives":[{"attributes":{"POSITION":89,"NORMAL":90,"TEXCOORD_0":91},"indices":88,"mode":4,"material":0}],"name":"hermes_birkin_key_002"},{"primitives":[{"attributes":{"POSITION":93,"NORMAL":94,"TEXCOORD_0":95},"indices":92,"mode":4,"material":0}],"name":"hermes_birkin_string"}],"accessors":[{"bufferView":0,"componentType":5123,"count":9216,"type":"SCALAR","name":"accessorIndices"},{"bufferView":1,"componentType":5126,"count":9216,"max":[17.0943069,0.21512115,8.894236],"min":[-17.094305,-0.15934217,-8.894299],"type":"VEC3","name":"accessorPositions"},{"bufferView":1,"byteOffset":110592,"componentType":5126,"count":9216,"type":"VEC3","name":"accessorNormals"},{"bufferView":2,"componentType":5126,"count":9216,"type":"VEC2","name":"accessorUVs"},{"bufferView":0,"byteOffset":18432,"componentType":5123,"count":28416,"type":"SCALAR","name":"accessorIndices"},{"bufferView":1,"byteOffset":221184,"componentType":5126,"count":28416,"max":[13.9677505,0.153562486,7.4913125],"min":[-13.9677505,-0.119651377,-7.4913187],"type":"VEC3","name":"accessorPositions"},{"bufferView":1,"byteOffset":562176,"componentType":5126,"count":28416,"type":"VEC3","name":"accessorNormals"},{"bufferView":2,"byteOffset":73728,"componentType":5126,"count":28416,"type":"VEC2","name":"accessorUVs"},{"bufferView":0,"byteOffset":75264,"componentType":5123,"count":5376,"type":"SCALAR","name":"accessorIndices"},{"bufferView":1,"byteOffset":903168,"componentType":5126,"count":5376,"max":[13.5034027,0.2600922,7.095189],"min":[-13.5033722,-0.256318361,-7.09523964],"type":"VEC3","name":"accessorPositions"},{"bufferView":1,"byteOffset":967680,"componentType":5126,"count":5376,"type":"VEC3","name":"accessorNormals"},{"bufferView":2,"byteOffset":301056,"componentType":5126,"count":5376,"type":"VEC2","name":"accessorUVs"},{"bufferView":0,"byteOffset":86016,"componentType":5123,"count":6144,"type":"SCALAR","name":"accessorIndices"},{"bufferView":1,"byteOffset":1032192,"componentType":5126,"count":6144,"max":[17.1201649,0.226817131,8.910736],"min":[-17.12016,-0.221052736,-8.910779],"type":"VEC3","name":"accessorPositions"},{"bufferView":1,"byteOffset":1105920,"componentType":5126,"count":6144,"type":"VEC3","name":"accessorNormals"},{"bufferView":2,"byteOffset":344064,"componentType":5126,"count":6144,"type":"VEC2","name":"accessorUVs"},{"bufferView":0,"byteOffset":98304,"componentType":5123,"count":26880,"type":"SCALAR","name":"accessorIndices"},{"bufferView":1,"byteOffset":1179648,"componentType":5126,"count":26880,"max":[16.43937,11.5405378,4.394175],"min":[-16.4393883,-11.8125858,-4.59077835],"type":"VEC3","name":"accessorPositions"},{"bufferView":1,"byteOffset":1502208,"componentType":5126,"count":26880,"type":"VEC3","name":"accessorNormals"},{"bufferView":2,"byteOffset":393216,"componentType":5126,"count":26880,"type":"VEC2","name":"accessorUVs"},{"bufferView":0,"byteOffset":152064,"componentType":5123,"count":64896,"type":"SCALAR","name":"accessorIndices"},{"bufferView":1,"byteOffset":1824768,"componentType":5126,"count":64896,"max":[15.58001,4.462494,2.12978864],"min":[-15.5800762,-4.478449,-2.11747956],"type":"VEC3","name":"accessorPositions"},{"bufferView":1,"byteOffset":2603520,"componentType":5126,"count":64896,"type":"VEC3","name":"accessorNormals"},{"bufferView":2,"byteOffset":608256,"componentType":5126,"count":64896,"type":"VEC2","name":"accessorUVs"},{"bufferView":0,"byteOffset":281856,"componentType":5123,"count":22656,"type":"SCALAR","name":"accessorIndices"},{"bufferView":1,"byteOffset":3382272,"componentType":5126,"count":22656,"max":[9.390551,1.08646393,0.750303268],"min":[-9.390551,-1.0717392,-0.745602131],"type":"VEC3","name":"accessorPositions"},{"bufferView":1,"byteOffset":3654144,"componentType":5126,"count":22656,"type":"VEC3","name":"accessorNormals"},{"bufferView":2,"byteOffset":1127424,"componentType":5126,"count":22656,"type":"VEC2","name":"accessorUVs"},{"bufferView":0,"byteOffset":327168,"componentType":5123,"count":26112,"type":"SCALAR","name":"accessorIndices"},{"bufferView":1,"byteOffset":3926016,"componentType":5126,"count":26112,"max":[7.821845,0.980833054,3.10151434],"min":[-7.808731,-0.98682785,-3.10141325],"type":"VEC3","name":"accessorPositions"},{"bufferView":1,"byteOffset":4239360,"componentType":5126,"count":26112,"type":"VEC3","name":"accessorNormals"},{"bufferView":2,"byteOffset":1308672,"componentType":5126,"count":26112,"type":"VEC2","name":"accessorUVs"},{"bufferView":0,"byteOffset":379392,"componentType":5123,"count":24960,"type":"SCALAR","name":"accessorIndices"},{"bufferView":1,"byteOffset":4552704,"componentType":5126,"count":24960,"max":[7.558734,1.00583267,3.201604],"min":[-7.57182455,-1.01182747,-3.20121336],"type":"VEC3","name":"accessorPositions"},{"bufferView":1,"byteOffset":4852224,"componentType":5126,"count":24960,"type":"VEC3","name":"accessorNormals"},{"bufferView":2,"byteOffset":1517568,"componentType":5126,"count":24960,"type":"VEC2","name":"accessorUVs"},{"bufferView":0,"byteOffset":429312,"componentType":5123,"count":16320,"type":"SCALAR","name":"accessorIndices"},{"bufferView":1,"byteOffset":5151744,"componentType":5126,"count":16320,"max":[2.37579966,0.6691036,0.395802736],"min":[-2.375794,-0.679418564,-0.406650066],"type":"VEC3","name":"accessorPositions"},{"bufferView":1,"byteOffset":5347584,"componentType":5126,"count":16320,"type":"VEC3","name":"accessorNormals"},{"bufferView":2,"byteOffset":1717248,"componentType":5126,"count":16320,"type":"VEC2","name":"accessorUVs"},{"bufferView":0,"byteOffset":461952,"componentType":5123,"count":38784,"type":"SCALAR","name":"accessorIndices"},{"bufferView":1,"byteOffset":5543424,"componentType":5126,"count":38784,"max":[16.4664726,12.9130993,4.703134],"min":[-16.47063,-12.98647,-4.502969],"type":"VEC3","name":"accessorPositions"},{"bufferView":1,"byteOffset":6008832,"componentType":5126,"count":38784,"type":"VEC3","name":"accessorNormals"},{"bufferView":2,"byteOffset":1847808,"componentType":5126,"count":38784,"type":"VEC2","name":"accessorUVs"},{"bufferView":0,"byteOffset":539520,"componentType":5123,"count":2496,"type":"SCALAR","name":"accessorIndices"},{"bufferView":1,"byteOffset":6474240,"componentType":5126,"count":2496,"max":[1.0999999,1.36662483,0.6589346],"min":[-1.0999999,-1.38805008,-0.6826999],"type":"VEC3","name":"accessorPositions"},{"bufferView":1,"byteOffset":6504192,"componentType":5126,"count":2496,"type":"VEC3","name":"accessorNormals"},{"bufferView":2,"byteOffset":2158080,"componentType":5126,"count":2496,"type":"VEC2","name":"accessorUVs"},{"bufferView":0,"byteOffset":544512,"componentType":5123,"count":25536,"type":"SCALAR","name":"accessorIndices"},{"bufferView":1,"byteOffset":6534144,"componentType":5126,"count":25536,"max":[5.96746731,9.92893,1.89080036],"min":[-5.9674654,-10.1681271,-1.92545569],"type":"VEC3","name":"accessorPositions"},{"bufferView":1,"byteOffset":6840576,"componentType":5126,"count":25536,"type":"VEC3","name":"accessorNormals"},{"bufferView":2,"byteOffset":2178048,"componentType":5126,"count":25536,"type":"VEC2","name":"accessorUVs"},{"bufferView":0,"byteOffset":595584,"componentType":5123,"count":15552,"type":"SCALAR","name":"accessorIndices"},{"bufferView":1,"byteOffset":7147008,"componentType":5126,"count":15552,"max":[15.588789,0.888431549,0.185600027],"min":[-15.5887814,-0.8692131,-0.185600027],"type":"VEC3","name":"accessorPositions"},{"bufferView":1,"byteOffset":7333632,"componentType":5126,"count":15552,"type":"VEC3","name":"accessorNormals"},{"bufferView":2,"byteOffset":2382336,"componentType":5126,"count":15552,"type":"VEC2","name":"accessorUVs"},{"bufferView":0,"byteOffset":626688,"componentType":5125,"count":124416,"type":"SCALAR","name":"accessorIndices"},{"bufferView":1,"byteOffset":7520256,"componentType":5126,"count":124416,"max":[17.8660831,11.21028,8.792831],"min":[-17.8660412,-11.21815,-8.793819],"type":"VEC3","name":"accessorPositions"},{"bufferView":1,"byteOffset":9013248,"componentType":5126,"count":124416,"type":"VEC3","name":"accessorNormals"},{"bufferView":2,"byteOffset":2506752,"componentType":5126,"count":124416,"type":"VEC2","name":"accessorUVs"},{"bufferView":0,"byteOffset":1124352,"componentType":5123,"count":20736,"type":"SCALAR","name":"accessorIndices"},{"bufferView":1,"byteOffset":10506240,"componentType":5126,"count":20736,"max":[16.5019855,11.1516132,8.9275],"min":[-16.50198,-11.1361828,-8.927473],"type":"VEC3","name":"accessorPositions"},{"bufferView":1,"byteOffset":10755072,"componentType":5126,"count":20736,"type":"VEC3","name":"accessorNormals"},{"bufferView":2,"byteOffset":3502080,"componentType":5126,"count":20736,"type":"VEC2","name":"accessorUVs"},{"bufferView":0,"byteOffset":1165824,"componentType":5123,"count":11136,"type":"SCALAR","name":"accessorIndices"},{"bufferView":1,"byteOffset":11003904,"componentType":5126,"count":11136,"max":[0.212650061,0.5475464,0.8899498],"min":[-0.212649941,-0.5760937,-0.9303875],"type":"VEC3","name":"accessorPositions"},{"bufferView":1,"byteOffset":11137536,"componentType":5126,"count":11136,"type":"VEC3","name":"accessorNormals"},{"bufferView":2,"byteOffset":3667968,"componentType":5126,"count":11136,"type":"VEC2","name":"accessorUVs"},{"bufferView":0,"byteOffset":1188096,"componentType":5123,"count":39552,"type":"SCALAR","name":"accessorIndices"},{"bufferView":1,"byteOffset":11271168,"componentType":5126,"count":39552,"max":[1.36213839,1.74552536,1.211052],"min":[-1.37103868,-1.74468231,-1.22272873],"type":"VEC3","name":"accessorPositions"},{"bufferView":1,"byteOffset":11745792,"componentType":5126,"count":39552,"type":"VEC3","name":"accessorNormals"},{"bufferView":2,"byteOffset":3757056,"componentType":5126,"count":39552,"type":"VEC2","name":"accessorUVs"},{"bufferView":0,"byteOffset":1267200,"componentType":5123,"count":54144,"type":"SCALAR","name":"accessorIndices"},{"bufferView":1,"byteOffset":12220416,"componentType":5126,"count":54144,"max":[0.5150796,1.12258816,0.452593327],"min":[-0.522071838,-1.13258934,-0.446362019],"type":"VEC3","name":"accessorPositions"},{"bufferView":1,"byteOffset":12870144,"componentType":5126,"count":54144,"type":"VEC3","name":"accessorNormals"},{"bufferView":2,"byteOffset":4073472,"componentType":5126,"count":54144,"type":"VEC2","name":"accessorUVs"},{"bufferView":0,"byteOffset":1375488,"componentType":5123,"count":25536,"type":"SCALAR","name":"accessorIndices"},{"bufferView":1,"byteOffset":13519872,"componentType":5126,"count":25536,"max":[5.96746731,9.951635,1.723289],"min":[-5.9674654,-10.1907787,-1.68856692],"type":"VEC3","name":"accessorPositions"},{"bufferView":1,"byteOffset":13826304,"componentType":5126,"count":25536,"type":"VEC3","name":"accessorNormals"},{"bufferView":2,"byteOffset":4506624,"componentType":5126,"count":25536,"type":"VEC2","name":"accessorUVs"},{"bufferView":0,"byteOffset":1426560,"componentType":5123,"count":16320,"type":"SCALAR","name":"accessorIndices"},{"bufferView":1,"byteOffset":14132736,"componentType":5126,"count":16320,"max":[2.375823,0.675546646,0.3844235],"min":[-2.375794,-0.6856632,-0.395181179],"type":"VEC3","name":"accessorPositions"},{"bufferView":1,"byteOffset":14328576,"componentType":5126,"count":16320,"type":"VEC3","name":"accessorNormals"},{"bufferView":2,"byteOffset":4710912,"componentType":5126,"count":16320,"type":"VEC2","name":"accessorUVs"},{"bufferView":0,"byteOffset":1459200,"componentType":5123,"count":15552,"type":"SCALAR","name":"accessorIndices"},{"bufferView":1,"byteOffset":14524416,"componentType":5126,"count":15552,"max":[0.9796133,1.52309227,0.985211849],"min":[-0.9967294,-1.56810379,-0.947946548],"type":"VEC3","name":"accessorPositions"},{"bufferView":1,"byteOffset":14711040,"componentType":5126,"count":15552,"type":"VEC3","name":"accessorNormals"},{"bufferView":2,"byteOffset":4841472,"componentType":5126,"count":15552,"type":"VEC2","name":"accessorUVs"},{"bufferView":0,"byteOffset":1490304,"componentType":5123,"count":54144,"type":"SCALAR","name":"accessorIndices"},{"bufferView":1,"byteOffset":14897664,"componentType":5126,"count":54144,"max":[0.7283641,0.9978018,0.473882675],"min":[-0.684443235,-1.03765106,-0.4585333],"type":"VEC3","name":"accessorPositions"},{"bufferView":1,"byteOffset":15547392,"componentType":5126,"count":54144,"type":"VEC3","name":"accessorNormals"},{"bufferView":2,"byteOffset":4965888,"componentType":5126,"count":54144,"type":"VEC2","name":"accessorUVs"},{"bufferView":0,"byteOffset":1598592,"componentType":5123,"count":38016,"type":"SCALAR","name":"accessorIndices"},{"bufferView":1,"byteOffset":16197120,"componentType":5126,"count":38016,"max":[0.994976759,4.686865,2.45202446],"min":[-1.0264101,-4.78362846,-2.39385462],"type":"VEC3","name":"accessorPositions"},{"bufferView":1,"byteOffset":16653312,"componentType":5126,"count":38016,"type":"VEC3","name":"accessorNormals"},{"bufferView":2,"byteOffset":5399040,"componentType":5126,"count":38016,"type":"VEC2","name":"accessorUVs"}],"bufferViews":[{"buffer":0,"byteLength":1674624,"name":"bufferViewScalar"},{"buffer":0,"byteOffset":1674624,"byteLength":17109504,"byteStride":12,"name":"bufferViewFloatVec3"},{"buffer":0,"byteOffset":18784128,"byteLength":5703168,"byteStride":8,"name":"bufferViewFloatVec2"}],"buffers":[{"uri":"hermes.bin","byteLength":24487296}],"materials":[{"pbrMetallicRoughness":{"baseColorFactor":[1.0,1.0,1.0,1.0],"baseColorTexture":{"index":0,"texCoord":0},"metallicFactor":0.3333332,"roughnessFactor":0.700000048},"emissiveFactor":[0.0,0.0,0.0],"alphaMode":"OPAQUE","name":"hermes_birkin_bag_leather"}],"textures":[{"sampler":0,"source":0,"name":"hermes_birkin_black_d.jpg"}],"images":[{"uri":"hermes_birkin_black_d.jpg"}],"samplers":[{"magFilter":9729,"minFilter":9987,"wrapS":10497,"wrapT":10497}]}